<?xml version="1.0" encoding="UTF-8"?>
<svg width="48px" height="48px" viewBox="0 0 48 48" version="1.1" xmlns="http://www.w3.org/2000/svg" xmlns:xlink="http://www.w3.org/1999/xlink">
    <!-- Generator: Sketch 43.2 (39069) - http://www.bohemiancoding.com/sketch -->
    <title>Page 1</title>
    <desc>Created with Sketch.</desc>
    <defs></defs>
    <g id="Page-1" stroke="none" stroke-width="1" fill="none" fill-rule="evenodd">
        <g id="Home-v2" transform="translate(-395.000000, -1715.000000)" fill="#A7A69C">
            <g id="Hours" transform="translate(191.000000, 1715.000000)">
                <path d="M227.880381,0.0063580026 C227.244401,0.0773025108 226.712295,0.682853908 226.727538,1.32380621 L226.727538,3.91570006 C226.717406,4.59978466 227.338182,5.23061871 228.022306,5.23061871 C228.706435,5.23061871 229.327192,4.59974574 229.317073,3.91570006 L229.317073,1.32380621 C229.332278,0.589065501 228.610176,-0.0721881662 227.880446,0.0063580026 L227.880381,0.0063580026 Z M227.941192,6.50733447 C227.310278,6.54533629 226.755398,7.11033685 226.727506,7.74370695 C226.540007,12.5778312 226.337305,17.4092314 226.139668,22.2432908 C225.711456,22.7044106 225.430176,23.304864 225.430176,23.9838895 C223.256165,26.3959249 221.160771,28.8534925 219.278133,30.9285123 C218.882859,31.4200323 218.9234,32.2105467 219.371882,32.6589928 C219.817828,33.1049093 220.608336,33.1479832 221.099947,32.7527358 C223.501958,30.5839275 225.967341,28.4050659 228.039839,26.5758028 C229.461287,26.5656651 230.609071,25.4077934 230.609071,23.9839089 C230.609071,23.2897061 230.345558,22.6664607 229.899579,22.2027724 C229.727279,17.3838255 229.471367,12.565138 229.311741,7.7434021 C229.311741,7.09479625 228.571893,6.48925782 227.935893,6.50955919 L227.941192,6.50733447 Z M211.116544,6.97858554 C210.505899,7.56892064 210.766883,8.3239238 211.083605,8.87627654 L212.925638,10.6979509 C213.379186,11.262945 214.336967,11.3136206 214.848751,10.8018317 C215.360574,10.2900427 215.309901,9.33235024 214.744864,8.8762506 L212.923069,7.0343397 C212.238939,6.51747866 211.752453,6.63149709 211.113923,6.97859851 L211.116544,6.97858554 Z M243.138381,7.03432673 L241.296349,8.87623763 C240.804797,9.35509036 240.80226,10.2418773 241.288747,10.7258021 C241.777769,11.2097204 242.664595,11.1945236 243.135904,10.6979315 L244.957698,8.87625709 C245.441648,8.11615589 245.398578,7.62211281 244.939964,7.00392657 C244.172224,6.50734096 243.832721,6.58841669 243.135942,7.03433321 L243.138381,7.03432673 Z M205.235246,22.7072386 C204.556176,22.7401748 203.968371,23.386264 204.001322,24.0652895 C204.034267,24.744315 204.680392,25.3320816 205.356868,25.301662 L207.946403,25.301662 C208.630533,25.3117932 209.258879,24.6910579 209.258879,24.0044503 C209.258879,23.3203657 208.6305,22.6996499 207.946403,22.7072386 L205.235246,22.7072386 Z M247.975354,22.7072386 C247.296284,22.7401748 246.708479,23.386264 246.74143,24.0652895 C246.774368,24.744315 247.4205,25.3320816 248.096976,25.301662 L250.686511,25.301662 C251.370641,25.3117932 251.998987,24.6910579 251.998987,24.0044503 C251.998987,23.3203657 251.370608,22.6996499 250.686511,22.7072386 L247.975354,22.7072386 Z M212.925625,37.2878981 L211.083592,39.1095725 C210.602172,39.5909613 210.602172,40.470153 211.083592,40.9514834 C211.565013,41.4328722 212.444262,41.4328722 212.925625,40.9514834 L214.747419,39.1095725 C215.27191,38.2962857 215.168029,37.7794117 214.6334,37.1561663 C213.977162,36.7254531 213.480557,36.9509409 212.925638,37.2879111 L212.925625,37.2878981 Z M241.349408,37.1992208 C240.723566,37.7895559 240.979478,38.5496181 241.298736,39.1095596 L243.140768,40.9514705 C243.619653,41.4455265 244.509028,41.4505921 244.990455,40.9616017 C245.474405,40.4726113 245.459207,39.5833143 244.960046,39.1095077 L243.138252,37.2878333 C242.395873,36.7481738 242.066489,36.8241839 241.349408,37.1991559 L241.349408,37.1992208 Z M227.879571,42.7757393 C227.24359,42.8466838 226.711484,43.4522352 226.726727,44.0931875 L226.726727,46.6850814 C226.716595,47.3691659 227.337372,48 228.021495,48 C228.705625,48 229.326381,47.369127 229.316262,46.6850814 L229.316262,44.0931875 C229.331467,43.3584468 228.609365,42.6971931 227.879635,42.7757393 L227.879571,42.7757393 Z" id="Page-1"></path>
            </g>
        </g>
    </g>
</svg>