<?xml version="1.0" encoding="UTF-8"?>
<svg width="60px" height="48px" viewBox="0 0 60 48" version="1.1" xmlns="http://www.w3.org/2000/svg" xmlns:xlink="http://www.w3.org/1999/xlink">
    <!-- Generator: Sketch 43.2 (39069) - http://www.bohemiancoding.com/sketch -->
    <title>Page 1</title>
    <desc>Created with Sketch.</desc>
    <defs></defs>
    <g id="Page-1" stroke="none" stroke-width="1" fill="none" fill-rule="evenodd" opacity="0.300000012">
        <g id="Home-v2" transform="translate(-994.000000, -1715.000000)" fill="#000000">
            <g id="Location" transform="translate(191.000000, 1715.000000)">
                <g id="Page-1" transform="translate(803.000000, 0.000000)">
                    <path d="M39.8846512,0.566511628 L20.7202326,7.65209302 L0.68372093,0.247674419 L0.68372093,40.1295349 L20.2618605,47.3651163 L20.4144767,47.4223465 L20.8832302,47.4196256 L39.8788116,40.4510442 L59.768114,47.8010442 L59.768114,7.92197442 L39.8846512,0.566511628 Z M19.8076744,45.3265116 L2.43906837,38.9057442 L2.43906837,2.76551163 L19.8076744,9.18627907 L19.8076744,45.3265116 Z M21.5627442,9.15627907 L39.0046047,2.76 L39.0046047,38.905807 L21.5627442,45.3511326 L21.5627442,9.15627907 Z M58.0134419,45.2825512 L40.7599535,38.9026744 L40.7599535,2.76522558 L58.0134419,9.14238837 L58.0134419,45.2825512 Z" id="Fill-1"></path>
                    <path d="M2.232,33.1151163 C1.74145116,33.0415326 1.43895349,32.9625 1.43895349,32.9625 L1.81776977,31.5562674 C1.83412116,31.5617163 2.07122093,31.6216744 2.44458837,31.6789047 L2.232,33.1151163 Z" id="Fill-2"></path>
                    <path d="M3.8044186,33.2183721 L3.78534419,31.765814 C4.24319302,31.763086 4.69015814,31.7140326 5.10164651,31.6268233 L5.39870233,33.0521721 C4.89452093,33.1584558 4.35763256,33.2129651 3.80437674,33.218414 L3.8044186,33.2183721 Z M6.95755814,32.5261465 L6.31984186,31.2207279 C6.70138605,31.0326837 7.04207442,30.7955791 7.33907442,30.5148907 L8.33926047,31.5695651 C7.93592093,31.9483814 7.46988837,32.2699605 6.95751628,32.5261465 L6.95755814,32.5261465 Z M9.36669767,30.2505419 L8.10216279,29.5283093 C8.30656047,29.1740233 8.47280233,28.7707047 8.60361628,28.3346581 L9.99896512,28.7489023 C9.83544419,29.2939605 9.62559767,29.8008558 9.36669767,30.250507 L9.36669767,30.2505419 Z M52.8353023,29.8472023 C52.6608837,29.4193326 52.4782884,28.9451093 52.3011488,28.4436907 L53.6692186,27.9585907 C53.8409093,28.4382419 54.012607,28.887893 54.1788488,29.3021721 L52.8353023,29.8472023 Z M10.4027442,27.3644581 L9.02644186,26.9038814 C9.19268372,26.3997 9.38345581,25.9228116 9.58512558,25.4730907 L10.9123116,26.0672023 C10.7269953,26.4759977 10.5552977,26.9120163 10.4026814,27.3644581 L10.4027442,27.3644581 Z M51.816,27.0456 C51.6633837,26.5768465 51.5107674,26.1053442 51.3636,25.6312047 L52.750786,25.2033349 C52.8952256,25.6611837 53.0451209,26.1271953 53.1977302,26.5878 L51.816,27.0456 Z M33.728093,26.4596651 L33.2375442,25.0915953 C33.6054558,24.9607814 34.0333116,24.7672884 34.5048,24.5356326 L35.1479721,25.8356093 C34.6192674,26.0972372 34.1396233,26.3125326 33.7280651,26.4597 L33.728093,26.4596651 Z M31.7413256,26.4269581 C31.4606233,26.2743419 30.9700465,26.1081 30.4931163,25.9527558 L30.956414,24.5710116 C31.6132116,24.7917628 32.0738093,24.9525558 32.441693,25.1514977 L31.7413256,26.4269581 Z M29.0841628,25.462214 C28.6453884,25.298693 28.171186,25.1052 27.6806512,24.879 L28.2911163,23.5599767 C28.7489651,23.7725512 29.1849767,23.9496907 29.593814,24.102307 L29.0841628,25.462214 Z M36.4781163,25.1460837 L35.7858907,23.8706651 C36.194686,23.6444651 36.6252628,23.4073674 37.0558674,23.162107 L37.7725884,24.4266419 C37.333814,24.6719163 36.8977744,24.9199186 36.4780535,25.1460837 L36.4781163,25.1460837 Z M11.5446279,24.8326744 L10.2882558,24.1022791 C10.5607814,23.6362535 10.8442186,23.2056279 11.1330698,22.8077442 L12.3049535,23.6689535 C12.0433256,24.0259674 11.7871465,24.4102326 11.5446279,24.8326744 Z M50.9304419,24.2222093 L50.5161977,22.807814 L51.9115465,22.4017465 L52.3257907,23.8079791 L50.9304419,24.2222093 Z M26.3185814,24.1704349 C25.9016093,23.9251605 25.4682558,23.6471791 25.0322093,23.3365047 L25.8797442,22.1537372 C26.274914,22.4426163 26.6673488,22.6933465 27.048907,22.9140628 L26.3185814,24.1704349 Z M39.0511395,23.6962326 L38.328907,22.4344186 L39.6124884,21.7067442 L40.3264884,22.9712791 L39.0511395,23.6962326 Z M13.1827674,22.6006744 L12.1199302,21.614093 C12.4796651,21.2271 12.8612093,20.8646512 13.2536512,20.5375814 L14.1802326,21.6576977 C13.8559256,21.9302233 13.517986,22.2409116 13.1827674,22.6006744 Z M23.8306744,22.3799233 C23.6916837,22.260007 23.5554209,22.1373698 23.4191581,22.0092837 C23.195686,21.8021581 22.972214,21.614114 22.7541907,21.4396953 L23.6535628,20.2978116 C23.8988372,20.4940326 24.1550163,20.7093279 24.4111674,20.9491535 C24.5365326,21.063614 24.6591698,21.1780744 24.781807,21.287093 L23.8306744,22.3799233 Z M41.5997442,22.2681837 L40.9102465,20.9873233 C41.4062512,20.7202465 41.861386,20.4858698 42.2674326,20.3060023 L42.867,21.6277465 C42.4909116,21.7994372 42.0603488,22.0201884 41.5997442,22.2681907 L41.5997442,22.2681837 Z M50.1274186,21.5405093 C49.985707,21.259807 49.7540512,21.0526814 49.4161395,20.9000651 L50.0129791,19.5756 C50.6506953,19.8644791 51.1276535,20.3005535 51.4219326,20.8755767 L50.1274186,21.5405093 Z M44.1399767,21.1780465 L43.7584326,19.7745349 C44.2162814,19.6518977 44.7177349,19.5319814 45.2382698,19.4284256 L45.5135233,20.8537744 C45.0311442,20.9518814 44.5651047,21.0609 44.1399419,21.1780814 L44.1399767,21.1780465 Z M15.2764884,20.8891674 L14.5570465,19.6246326 C14.9658419,19.3957116 15.5599535,19.1095535 16.0995349,19.0577721 L16.3938698,20.4858419 L16.2303488,20.5076442 C16.0695558,20.5239907 15.7316233,20.6330093 15.2764884,20.8891884 L15.2764884,20.8891674 Z M21.6400465,20.7011233 C21.2448767,20.4858279 20.8361163,20.3277558 20.4381628,20.2187442 L20.8142512,18.8152326 C21.3238814,18.9542233 21.8334837,19.155893 22.3268093,19.4229698 L21.6400465,20.7011233 Z M46.8895814,20.6547907 L46.7587674,19.2076744 C47.0858023,19.1776953 47.421014,19.1722465 47.7262326,19.1640698 C47.9360791,19.1640698 48.1486535,19.1722465 48.3475953,19.1858721 L48.2385837,20.6357093 C48.0641651,20.6220837 47.8815698,20.6248047 47.7071512,20.6166349 C47.4400744,20.613907 47.1675419,20.6275326 46.8895465,20.6547837 L46.8895814,20.6547907 Z M17.8600465,20.1751395 L17.5820651,18.7470698 C18.1380279,18.640786 18.620414,18.5890047 19.1082279,18.5890047 L19.1790837,19.3166791 L19.1572814,20.0443535 C18.715786,20.0389047 18.3179093,20.0825093 17.8600256,20.1751674 L17.8600465,20.1751395 Z" id="Fill-3"></path>
                    <path d="M54.0453488,32.0469767 C53.8709302,31.875286 53.6965116,31.6272837 53.5111953,31.2975349 L54.7784512,30.5862558 C54.9392442,30.872414 55.0373512,30.9814256 55.072786,31.0168535 L54.0453488,32.0469767 Z" id="Fill-4"></path>
                    <polygon id="Fill-5" points="56.8904651 29.8667442 55.8602791 28.8365581 54.0779302 30.6243488 52.2901395 28.8365581 51.2572326 29.8667442 53.0477442 31.6545349 51.2572326 33.4423256 52.2901395 34.4697907 54.0779302 32.682 55.8602791 34.4697907 56.8904651 33.4423256 55.1026744 31.6545349"></polygon>
                </g>
            </g>
        </g>
    </g>
</svg>